<?xml version="1.0" standalone="no"?>
<!DOCTYPE svg PUBLIC "-//W3C//DTD SVG 20010904//EN"
 "http://www.w3.org/TR/2001/REC-SVG-20010904/DTD/svg10.dtd">
<svg version="1.0" xmlns="http://www.w3.org/2000/svg"
 width="1920.000000pt" height="1920.000000pt" viewBox="0 0 1920.000000 1920.000000"
 preserveAspectRatio="xMidYMid meet">

<g transform="translate(0.000000,1920.000000) scale(0.100000,-0.100000)"
fill="#000000" stroke="none">
<path d="M10275 16318 c-18 -11 -100 -27 -235 -47 -30 -5 -70 -14 -88 -21 -18
-6 -39 -10 -47 -6 -8 3 -17 1 -20 -4 -4 -6 -19 -10 -34 -10 -16 0 -46 -7 -66
-16 -21 -8 -46 -14 -55 -11 -9 2 -28 -4 -41 -14 -13 -10 -37 -19 -52 -19 -15
0 -42 -7 -58 -16 -17 -8 -37 -13 -44 -11 -7 3 -30 -5 -51 -19 -22 -13 -47 -24
-56 -24 -10 0 -22 -9 -28 -20 -6 -11 -14 -19 -18 -19 -4 1 -19 1 -34 0 -24 -1
-28 -5 -28 -29 0 -27 -40 -79 -52 -67 -3 3 -11 -1 -18 -10 -7 -8 -21 -15 -30
-15 -10 0 -20 -5 -22 -11 -2 -6 -28 -20 -58 -32 -49 -18 -83 -21 -297 -25
-217 -3 -243 -2 -243 12 0 20 -16 21 -24 1 -9 -23 -56 -19 -56 5 0 16 -5 19
-30 14 -19 -4 -30 -2 -30 5 0 15 -47 14 -53 -1 -3 -10 -7 -10 -20 1 -15 12
-17 9 -17 -30 0 -28 -3 -39 -9 -31 -14 23 -63 44 -75 32 -5 -5 -11 -47 -11
-91 -2 -81 -2 -81 -33 -95 -17 -7 -39 -13 -49 -14 -81 -6 -339 -22 -478 -29
-93 -5 -199 -16 -235 -25 -44 -11 -112 -16 -212 -16 -110 0 -158 -4 -187 -16
-21 -8 -45 -14 -52 -13 -8 2 -28 -5 -46 -14 -19 -10 -54 -17 -88 -17 -31 0
-66 -5 -77 -11 -11 -6 -39 -13 -61 -15 -29 -3 -51 -14 -77 -37 -49 -47 -81
-64 -114 -64 -17 0 -35 -8 -43 -19 -7 -10 -22 -19 -34 -21 -11 -2 -31 -16 -45
-32 -18 -21 -35 -31 -62 -33 -32 -3 -38 -7 -42 -33 l-5 -30 -180 2 c-99 2
-400 6 -670 10 l-490 8 -57 28 c-31 15 -64 27 -73 27 -9 0 -33 9 -55 20 -24
12 -59 20 -89 20 -29 0 -84 12 -134 30 l-85 30 -403 0 -403 0 -27 26 c-27 26
-31 26 -171 27 -175 2 -194 -2 -204 -45 -3 -18 -15 -44 -25 -57 -17 -22 -19
-45 -19 -288 0 -220 3 -269 16 -294 8 -17 14 -41 12 -54 -2 -15 7 -32 26 -50
24 -22 27 -31 21 -58 -4 -18 -9 -128 -12 -245 -4 -182 -2 -217 11 -237 9 -14
16 -37 16 -53 0 -16 7 -35 15 -42 13 -11 15 -138 15 -1030 0 -1002 0 -1018
-20 -1043 -11 -14 -20 -31 -20 -38 0 -6 -13 -53 -29 -103 -16 -50 -34 -116
-39 -147 -6 -31 -29 -95 -51 -143 -22 -48 -47 -121 -55 -162 -7 -41 -21 -83
-30 -93 -10 -11 -16 -35 -16 -64 0 -25 -4 -49 -10 -52 -5 -3 -10 -19 -10 -34
0 -15 -9 -36 -20 -46 -11 -10 -20 -26 -20 -36 0 -10 -9 -34 -19 -52 -11 -19
-23 -43 -28 -53 -5 -11 -18 -35 -28 -54 -28 -54 -37 -119 -42 -312 -2 -98 -8
-178 -12 -178 -4 0 -7 -16 -8 -36 0 -24 -7 -40 -22 -50 -26 -19 -27 -45 -2
-75 14 -17 16 -30 10 -51 -4 -15 -4 -30 1 -33 8 -5 10 -18 28 -140 5 -33 14
-73 21 -90 7 -16 12 -30 11 -30 -5 0 13 -103 21 -123 5 -13 12 -40 15 -60 3
-21 11 -44 18 -52 7 -8 13 -31 15 -50 2 -19 7 -40 12 -46 5 -6 12 -31 15 -55
4 -24 15 -56 25 -71 11 -14 19 -29 19 -33 0 -4 9 -18 20 -32 11 -14 20 -39 20
-54 0 -25 4 -29 28 -29 15 0 34 -6 42 -13 24 -19 50 -64 50 -86 0 -11 5 -21
11 -23 14 -5 38 -67 49 -128 5 -25 9 -138 9 -252 1 -179 -1 -208 -14 -208 -19
0 -19 -16 0 -24 23 -9 19 -56 -5 -56 -16 0 -19 -5 -13 -30 3 -19 1 -30 -6 -30
-15 0 -14 -47 2 -53 9 -3 9 -7 -2 -20 -12 -15 -9 -17 30 -17 28 0 39 -3 31 -9
-23 -14 -44 -63 -32 -75 6 -6 46 -11 90 -11 86 0 89 -2 106 -75 7 -32 24 -284
33 -500 4 -107 11 -176 20 -195 10 -21 16 -86 19 -215 2 -102 8 -193 13 -202
5 -10 12 -37 15 -60 4 -24 13 -52 20 -63 8 -11 14 -44 14 -78 0 -32 5 -67 10
-78 6 -10 13 -37 16 -60 4 -29 16 -52 40 -76 19 -18 34 -40 34 -47 0 -8 6 -18
13 -24 7 -6 14 -26 15 -44 1 -20 10 -38 22 -47 11 -7 20 -22 20 -33 0 -11 13
-30 29 -44 19 -16 31 -36 33 -56 3 -30 13 -40 51 -52 17 -6 18 -17 12 -193 -3
-104 -9 -402 -13 -663 l-7 -475 -28 -59 c-15 -32 -27 -67 -27 -78 0 -10 -9
-36 -20 -58 -12 -23 -20 -59 -20 -87 0 -27 -13 -85 -30 -133 l-30 -85 0 -403
0 -403 -26 -22 c-26 -22 -26 -24 -27 -172 -1 -83 2 -160 6 -172 5 -13 20 -24
40 -29 18 -3 43 -15 56 -25 22 -17 45 -19 288 -19 222 0 269 3 295 16 17 9 41
14 55 11 17 -3 29 3 43 20 17 22 24 24 62 18 24 -4 137 -9 251 -11 178 -4 212
-3 233 10 13 9 36 16 52 16 16 0 35 7 42 15 11 13 138 15 1036 15 578 0 1025
-4 1028 -9 6 -9 96 -41 118 -41 7 -1 31 -9 53 -20 22 -11 56 -20 75 -20 47 0
110 -21 200 -65 48 -24 103 -42 153 -50 42 -7 85 -19 95 -28 9 -8 37 -17 62
-21 91 -11 119 -18 136 -37 9 -10 26 -19 37 -19 10 0 31 -8 45 -18 15 -10 41
-24 57 -31 17 -7 44 -20 60 -29 49 -25 121 -34 308 -39 97 -2 177 -7 177 -11
0 -5 16 -9 36 -10 23 -2 43 -11 54 -25 17 -21 20 -21 52 -8 18 8 47 15 63 16
17 2 37 5 45 8 8 3 33 8 55 12 101 15 142 23 165 32 14 6 27 11 30 11 24 -1
119 16 132 23 10 5 37 12 60 15 24 4 49 11 56 16 7 6 29 14 50 19 91 20 140
35 165 52 15 10 31 16 36 13 4 -3 19 6 31 19 14 15 35 25 52 25 24 0 28 4 28
28 0 37 63 92 105 92 9 0 18 7 21 15 4 8 14 15 23 15 9 0 34 7 57 14 53 19
479 23 501 5 10 -9 17 -9 25 -1 17 17 58 15 58 -3 0 -11 8 -14 30 -10 17 3 30
1 30 -5 0 -5 14 -10 30 -10 17 0 30 5 30 11 0 8 5 8 15 -1 13 -11 15 -7 15 23
0 34 1 35 25 24 14 -7 25 -15 25 -19 0 -5 9 -8 19 -8 14 0 20 10 25 38 10 56
10 64 2 103 -7 33 -5 37 21 48 15 6 39 14 53 17 30 7 280 23 510 33 96 4 179
12 198 20 18 7 39 11 47 7 8 -3 17 -1 20 4 4 6 73 10 161 10 87 0 164 5 175
10 10 6 38 13 61 16 24 4 52 13 63 20 11 8 44 14 78 14 32 0 67 5 78 10 10 6
38 13 61 16 29 4 54 16 78 38 39 36 97 66 129 66 11 0 25 9 31 20 6 11 20 20
31 20 11 0 32 14 46 31 21 24 32 30 55 27 32 -5 45 6 50 42 l3 25 175 -2 c96
-2 396 -6 665 -10 l490 -8 57 -27 c31 -16 63 -28 72 -28 8 0 35 -9 61 -20 26
-11 66 -20 90 -20 24 0 83 -13 132 -30 l88 -30 400 0 400 0 26 -31 25 -31 150
-1 c167 -1 194 4 194 37 0 12 11 37 25 56 l25 34 0 268 c0 226 -3 274 -16 300
-9 17 -14 41 -11 54 3 17 -3 28 -20 40 -23 14 -24 20 -18 62 4 26 8 146 9 266
1 168 -2 220 -11 224 -8 2 -13 20 -13 42 0 24 -5 40 -15 44 -13 5 -15 129 -15
1034 0 622 4 1032 9 1038 16 15 72 186 81 244 4 30 11 64 15 75 14 40 37 91
61 136 13 26 29 82 36 125 6 45 20 89 30 103 11 14 18 41 18 67 0 23 5 46 10
49 5 3 10 19 10 36 0 17 8 36 20 46 11 10 20 25 20 35 0 10 9 33 19 51 48 85
79 158 86 202 4 22 9 120 12 218 2 97 7 177 11 177 4 0 8 17 10 37 1 23 10 41
22 50 24 17 26 50 4 81 -8 12 -14 35 -13 50 1 15 -1 34 -4 42 -6 16 -13 56
-26 141 -5 30 -14 66 -21 78 -6 13 -10 32 -7 42 3 10 1 22 -4 25 -5 3 -9 18
-9 34 0 16 -7 48 -16 69 -9 22 -14 46 -11 53 2 7 -3 24 -12 38 -9 14 -18 41
-20 60 -2 19 -7 40 -12 47 -6 6 -12 30 -15 54 -3 23 -14 55 -25 70 -10 15 -19
32 -19 37 0 6 -10 18 -22 27 -13 8 -22 18 -20 20 1 3 2 16 2 30 0 21 -5 25
-28 25 -27 0 -79 40 -67 52 3 3 -1 11 -10 18 -8 7 -15 20 -15 29 0 9 -5 22
-12 29 -33 33 -41 87 -45 330 -4 185 -2 246 8 258 9 11 9 18 1 26 -17 17 -15
58 3 58 11 0 14 8 10 30 -3 17 -1 30 5 30 5 0 10 14 10 30 0 17 -5 30 -11 30
-8 0 -8 5 1 15 11 13 7 15 -23 15 -34 0 -35 1 -24 25 7 14 15 25 20 25 4 0 7
9 7 19 0 14 -10 20 -37 25 -57 10 -65 10 -105 2 -35 -8 -37 -7 -52 28 -8 19
-15 44 -16 53 -6 77 -21 349 -28 488 -5 106 -13 181 -21 200 -9 20 -16 93 -20
220 -4 126 -11 198 -19 213 -7 12 -12 30 -11 40 2 9 -5 34 -14 56 -9 21 -17
61 -17 88 0 27 -5 59 -11 70 -6 11 -13 39 -15 61 -3 29 -14 52 -37 77 -41 45
-59 78 -64 115 -2 16 -11 36 -20 42 -9 7 -18 23 -20 35 -2 12 -17 33 -33 47
-20 18 -30 37 -32 61 -3 30 -7 36 -33 40 l-30 5 2 180 c2 99 6 398 10 665 l8
485 26 60 c44 102 61 158 70 225 4 36 19 99 33 140 l26 73 0 406 0 405 31 26
31 26 1 144 c2 170 -4 200 -36 200 -13 0 -38 11 -57 25 l-34 25 -262 0 c-210
0 -269 -3 -297 -15 -20 -8 -47 -15 -60 -15 -13 0 -34 -12 -48 -26 -21 -23 -28
-25 -64 -18 -22 5 -139 8 -259 9 -167 0 -220 -3 -224 -12 -2 -8 -20 -13 -42
-13 -21 0 -43 -6 -50 -15 -11 -13 -137 -15 -1023 -15 -961 0 -1011 1 -1041 18
-17 10 -51 24 -76 31 -25 7 -61 20 -80 28 -19 8 -63 19 -97 23 -39 5 -101 25
-166 54 -61 27 -134 52 -173 58 -38 6 -80 20 -93 30 -14 11 -40 18 -67 18 -23
0 -46 5 -49 10 -3 6 -19 10 -36 10 -17 0 -36 8 -46 20 -10 11 -25 20 -35 20
-10 0 -33 9 -51 19 -86 48 -158 79 -202 86 -22 4 -120 9 -217 12 -98 2 -178 7
-178 11 0 4 -17 8 -37 10 -23 1 -41 10 -50 22 -16 22 -38 25 -68 8z m815 -666
c65 -15 145 -24 255 -28 111 -5 178 -12 217 -25 32 -10 74 -21 95 -25 100 -17
209 -58 251 -95 39 -34 79 -48 137 -50 11 0 58 -5 105 -11 47 -6 208 -11 359
-11 268 0 276 -1 308 -23 31 -21 69 -29 175 -39 26 -2 55 -8 65 -13 10 -6 41
-13 68 -17 28 -4 55 -11 60 -16 30 -23 131 -31 445 -33 202 -1 343 -6 355 -12
32 -16 165 -7 246 16 41 12 84 24 97 27 12 3 25 9 28 14 3 5 14 9 24 9 11 0
29 14 42 30 12 17 28 30 35 30 7 0 21 4 31 10 9 5 62 24 117 41 55 17 132 47
170 67 39 19 80 40 92 46 13 6 23 17 23 24 0 8 18 12 55 12 51 0 55 -2 55 -24
0 -13 6 -26 13 -29 9 -3 9 -7 -2 -20 -16 -20 -1 -23 29 -7 28 15 32 -2 10 -43
-24 -45 -25 -47 -1 -47 17 0 18 -14 18 -317 0 -238 -3 -331 -13 -368 -23 -83
-45 -178 -49 -207 -4 -35 -21 -85 -56 -173 -15 -38 -31 -86 -35 -105 -4 -19
-6 -224 -6 -455 0 -245 -4 -451 -10 -495 -12 -85 -15 -452 -4 -490 22 -78 65
-150 89 -150 12 0 36 -31 37 -47 0 -7 16 -33 35 -59 19 -25 35 -52 35 -60 0
-8 5 -14 10 -14 6 0 10 -4 10 -9 0 -12 26 -69 51 -111 12 -19 23 -50 25 -70 7
-57 15 -91 39 -165 20 -61 23 -90 22 -225 0 -129 4 -167 21 -225 16 -55 21
-96 20 -190 0 -66 4 -138 10 -160 5 -22 10 -99 10 -172 0 -107 4 -145 22 -202
12 -39 19 -74 16 -79 -3 -5 4 -33 15 -63 16 -41 22 -83 25 -179 2 -69 8 -145
14 -170 6 -24 9 -52 7 -61 -6 -23 12 -120 27 -144 12 -20 28 -67 46 -142 6
-23 15 -45 20 -48 6 -3 10 -14 10 -25 0 -10 6 -20 13 -23 6 -2 18 -22 25 -43
7 -22 17 -48 22 -59 4 -11 11 -27 14 -35 4 -8 15 -28 26 -45 11 -16 23 -37 27
-45 3 -8 17 -32 30 -52 l23 -38 0 -718 0 -719 -24 -109 c-22 -101 -30 -171
-41 -375 -2 -42 -11 -94 -19 -115 -8 -22 -20 -65 -26 -97 -25 -128 -66 -237
-103 -272 -33 -32 -46 -69 -48 -130 0 -11 -5 -60 -11 -110 -6 -49 -11 -211
-11 -360 0 -264 -1 -271 -23 -305 -22 -34 -30 -71 -39 -172 -2 -26 -8 -55 -13
-65 -6 -10 -13 -40 -17 -68 -4 -27 -11 -55 -16 -60 -24 -31 -31 -127 -32 -419
0 -169 -4 -329 -9 -355 -18 -88 -12 -194 18 -288 36 -115 63 -175 83 -180 11
-3 31 -50 60 -141 24 -75 59 -168 79 -207 19 -38 40 -80 46 -92 6 -12 19 -24
28 -26 13 -4 17 -16 16 -56 -1 -49 -3 -51 -29 -51 -15 0 -29 -6 -32 -13 -3 -9
-7 -9 -20 2 -20 16 -23 1 -7 -30 9 -16 7 -19 -12 -19 -13 0 -32 7 -42 15 -26
20 -36 19 -36 -4 0 -18 -14 -19 -317 -19 -307 0 -321 1 -395 24 -43 13 -106
28 -141 34 -70 11 -173 43 -227 70 -19 9 -53 21 -75 25 -22 4 -236 7 -475 7
-253 0 -460 4 -495 10 -68 11 -461 16 -471 5 -4 -4 -18 -7 -30 -7 -13 0 -26
-4 -29 -10 -3 -5 -14 -10 -24 -10 -17 0 -71 -49 -71 -64 0 -12 -32 -35 -50
-36 -8 0 -31 -14 -50 -30 -19 -17 -42 -30 -52 -30 -9 0 -21 -6 -25 -13 -4 -7
-24 -19 -43 -27 -19 -7 -42 -18 -50 -24 -38 -28 -83 -48 -100 -43 -19 5 -85
-10 -185 -42 -49 -16 -88 -20 -215 -19 -123 0 -164 -3 -200 -16 -32 -12 -87
-19 -189 -22 -80 -2 -161 -8 -180 -13 -20 -5 -97 -9 -171 -9 -115 1 -145 -2
-202 -22 -37 -12 -77 -20 -88 -17 -11 3 -23 1 -26 -4 -3 -5 -15 -9 -28 -9 -12
0 -27 -5 -34 -12 -8 -8 -56 -13 -141 -14 -72 -1 -135 -5 -141 -9 -6 -4 -39 -8
-73 -10 -94 -4 -155 -16 -168 -31 -6 -8 -20 -14 -30 -14 -10 0 -21 -5 -24 -10
-4 -6 -10 -8 -14 -6 -15 10 -171 -47 -171 -62 0 -4 -17 -14 -37 -21 -21 -7
-47 -16 -58 -21 -11 -4 -27 -11 -35 -14 -8 -4 -28 -15 -45 -26 -16 -11 -49
-28 -72 -40 -23 -11 -45 -24 -48 -30 -4 -7 -258 -10 -733 -10 l-727 0 -110 24
c-68 16 -170 28 -270 34 -121 8 -181 16 -249 36 -48 14 -96 26 -105 26 -9 0
-56 13 -104 29 -61 19 -98 38 -121 60 -33 32 -133 65 -162 54 -7 -2 -48 1 -91
8 -47 7 -183 11 -343 11 -258 0 -266 0 -305 23 -44 25 -93 36 -170 39 -27 1
-59 7 -70 13 -22 11 -94 28 -109 24 -4 -1 -13 3 -20 8 -31 26 -122 33 -396 33
-157 0 -321 4 -365 10 -128 17 -202 13 -301 -17 -107 -32 -171 -61 -183 -82
-8 -15 -65 -39 -166 -70 -27 -8 -58 -19 -67 -24 -10 -5 -23 -9 -29 -9 -23 0
-199 -93 -199 -105 0 -15 -22 -25 -55 -25 -38 0 -55 11 -55 35 0 13 -6 25 -12
28 -10 3 -10 7 1 20 15 19 5 22 -33 7 -32 -12 -34 3 -6 45 25 38 25 43 -2 47
l-23 3 -1 315 c-2 304 -1 318 21 386 13 40 26 94 30 120 9 61 52 208 75 254 9
19 21 53 25 75 4 22 7 234 7 470 0 247 4 456 10 490 5 33 10 152 11 265 0 172
-2 214 -18 263 -17 54 -55 107 -78 107 -13 0 -36 31 -37 49 0 7 -13 30 -30 51
-16 21 -30 45 -30 53 0 9 -5 19 -11 23 -6 3 -18 23 -26 43 -8 20 -28 57 -45
84 -17 26 -28 55 -25 66 5 19 -18 121 -45 201 -12 33 -16 88 -16 205 0 127 -3
169 -17 205 -12 33 -18 83 -20 186 -2 78 -8 159 -13 180 -6 21 -10 95 -10 164
1 124 -6 185 -23 206 -5 6 -11 33 -14 60 -2 27 -13 76 -23 109 -15 45 -20 88
-19 166 0 58 -3 111 -7 117 -4 7 -9 47 -11 89 -5 96 -11 123 -40 177 -13 24
-22 46 -20 48 12 12 -48 168 -64 168 -4 0 -14 19 -21 43 -7 23 -17 46 -22 52
-4 5 -8 17 -8 26 0 9 -7 22 -15 29 -8 7 -15 21 -15 31 0 11 -4 19 -9 19 -5 0
-20 24 -35 53 l-26 54 0 724 0 724 25 120 c17 83 27 167 31 275 3 92 11 171
19 195 8 22 23 78 34 125 36 157 54 206 88 237 17 17 35 43 38 59 4 16 11 44
16 63 4 19 6 38 3 43 -3 4 0 43 7 86 7 45 11 187 11 347 0 262 1 271 23 310
25 44 36 92 39 170 1 28 7 59 13 70 11 22 28 94 24 109 -1 4 3 13 8 20 26 31
33 122 33 396 0 157 4 321 10 365 17 128 13 210 -17 305 -14 47 -33 98 -41
113 -8 16 -14 34 -14 41 0 7 -11 18 -25 24 -14 6 -25 18 -25 25 0 8 -9 36 -19
63 -11 27 -29 81 -41 119 -29 92 -109 255 -126 255 -10 0 -14 15 -14 55 0 51
2 55 24 55 13 0 26 6 29 13 3 9 7 9 20 -2 20 -16 22 -4 7 35 -15 38 -7 40 37
10 46 -32 51 -32 55 -3 l3 22 310 2 c247 1 321 -2 365 -14 62 -16 137 -35 256
-63 45 -11 106 -30 135 -44 30 -13 74 -27 99 -31 25 -4 232 -7 460 -7 242 0
446 -4 490 -10 85 -12 448 -15 497 -4 60 14 143 65 143 89 0 13 31 36 49 37 7
0 27 12 44 26 17 14 60 40 96 57 36 17 84 41 105 55 21 13 57 26 80 28 54 6
166 34 191 47 12 7 90 12 187 13 170 2 223 8 247 27 8 7 71 12 160 13 81 1
165 7 187 12 21 6 89 10 149 10 117 -1 203 8 221 23 6 5 30 10 55 13 56 5 100
16 117 29 8 6 71 12 140 14 70 1 147 7 172 13 24 6 52 9 61 7 28 -7 120 13
174 37 28 13 68 27 90 30 43 8 125 43 125 55 0 4 17 13 38 20 75 25 131 51
154 69 9 7 36 24 60 37 l43 24 750 -2 c734 -2 752 -3 845 -25z"/>
<path d="M13365 14204 c-280 -12 -531 -23 -556 -23 l-47 -1 -158 -245 c-87
-135 -161 -242 -165 -238 -4 5 -22 64 -39 133 -36 138 -29 130 -172 247 l-68
55 -595 -83 -595 -84 -8 -30 c-5 -16 -143 -560 -307 -1207 -165 -647 -301
-1175 -303 -1173 -2 2 74 492 168 1090 94 598 170 1088 168 1089 -2 1 -47 39
-100 84 l-98 82 -646 -89 c-356 -49 -650 -94 -654 -100 -3 -6 -177 -690 -385
-1520 -209 -830 -381 -1509 -382 -1507 -1 1 -7 208 -13 461 l-10 460 -34 30
-33 30 -12 675 c-6 371 -14 789 -18 928 l-6 253 -99 85 -99 86 -1232 -52
c-678 -29 -1233 -53 -1233 -53 -1 -1 -56 -915 -122 -2032 -111 -1884 -118
-2031 -103 -2045 9 -8 34 -29 55 -47 l39 -32 -212 -1788 c-116 -983 -214
-1797 -216 -1809 -3 -15 19 -41 93 -111 l98 -90 1234 243 c679 134 1242 244
1252 244 13 0 15 -6 9 -26 -6 -24 3 -36 89 -118 l95 -91 670 -75 670 -74 68
-65 67 -64 728 137 c400 76 740 140 755 143 28 6 29 8 25 57 l-3 51 695 78
c382 43 697 83 700 88 4 5 42 177 85 381 l79 373 15 -45 c11 -35 31 -60 87
-110 40 -36 73 -73 73 -83 1 -10 -31 -162 -71 -338 l-71 -320 89 -90 c61 -61
96 -89 112 -89 25 0 1745 310 1751 316 2 1 92 830 201 1841 l197 1838 -96 91
-96 91 -320 7 c-176 3 -451 9 -611 12 l-290 7 -173 -237 c-96 -130 -176 -235
-179 -232 -2 3 -17 65 -31 138 l-27 133 -95 93 -94 92 -70 -5 c-167 -13 -189
-14 -180 -10 6 3 322 81 703 173 381 93 695 172 698 174 5 6 174 3538 174
3643 l-1 60 -99 83 c-98 81 -100 82 -152 81 -29 -1 -282 -12 -563 -25z m445
-166 c-2 -141 -161 -3373 -167 -3378 -13 -11 -1353 -333 -1359 -327 -4 3 57
394 135 868 78 474 140 864 138 865 -2 2 -113 -169 -248 -381 -134 -211 -246
-385 -249 -385 -5 0 -179 483 -250 695 -17 50 -33 96 -36 104 -2 8 -7 12 -9 9
-3 -3 -59 -355 -125 -783 -66 -428 -122 -780 -124 -782 -6 -7 -1286 -227
-1291 -222 -6 6 875 3472 885 3483 9 9 909 138 925 132 6 -2 60 -188 120 -415
61 -226 113 -411 116 -411 5 0 342 520 580 892 4 5 186 18 415 27 533 24 544
24 544 9z m-3525 -385 c-74 -505 -527 -3328 -534 -3333 -15 -9 -1280 -214
-1286 -208 -3 2 190 780 428 1729 379 1508 436 1724 453 1727 42 7 920 130
933 131 10 1 12 -9 6 -46z m-2345 -245 c0 -126 18 -1085 24 -1299 l5 -155
-175 -60 c-95 -32 -174 -61 -174 -64 0 -3 94 -42 209 -88 l208 -83 6 -297 c4
-163 10 -450 13 -637 l7 -340 -1034 -269 -1034 -269 -199 7 c-110 3 -202 8
-204 11 -6 5 199 3547 205 3555 4 5 1878 87 2041 89 l102 1 0 -102z m4061
-2455 c7 -21 21 -44 31 -51 11 -8 47 -38 82 -67 l62 -53 -52 -324 c-29 -177
-53 -330 -54 -340 0 -9 31 -42 69 -75 68 -57 69 -58 43 -65 -15 -3 -137 -14
-271 -24 -144 -11 -248 -22 -255 -29 -6 -6 -180 -541 -386 -1188 -289 -907
-377 -1170 -382 -1149 -3 15 -18 529 -32 1142 l-26 1115 -93 87 c-50 48 -90
87 -87 88 21 1 1213 209 1214 212 2 2 26 163 55 358 53 354 60 400 66 400 2 0
9 -17 16 -37z m-3741 -924 c0 -6 -7 -38 -15 -71 l-16 -59 28 -22 c15 -12 60
-50 100 -85 l72 -62 130 21 c72 12 133 20 136 17 4 -4 -493 -1968 -511 -2017
-4 -12 -9 -10 -27 7 l-21 22 38 927 37 927 -88 83 c-48 46 -98 88 -111 93 -13
6 -142 10 -299 10 -152 0 -273 3 -269 7 8 8 770 210 799 212 9 1 17 -4 17 -10z
m1770 -55 c-173 -18 -189 -14 -50 10 93 17 130 20 145 12 16 -9 -3 -13 -95
-22z m4193 -120 c189 -5 267 -10 267 -18 0 -24 -359 -3359 -362 -3361 -5 -5
-1383 -253 -1386 -250 -3 2 296 1338 373 1669 12 49 12 57 1 45 -8 -8 -129
-174 -271 -369 -141 -195 -260 -356 -263 -358 -4 -1 -19 40 -33 90 -57 199
-201 704 -206 718 -4 12 -7 11 -14 -5 -5 -11 -81 -357 -170 -770 -88 -412
-164 -753 -167 -757 -12 -12 -1067 -126 -1073 -116 -3 5 -9 151 -13 325 l-7
317 437 1370 c240 754 440 1375 445 1380 10 12 933 86 939 76 3 -5 43 -196 90
-424 47 -229 87 -416 90 -416 3 0 115 152 250 337 135 184 278 380 318 435
l72 99 208 -6 c114 -3 327 -8 475 -11z m-3743 -36 c0 -13 18 -761 40 -1663
l41 -1640 -53 -164 -53 -165 -510 -97 c-281 -53 -512 -95 -515 -92 -4 3 71
796 87 921 l6 42 -65 0 c-36 0 -112 -3 -170 -6 l-106 -7 -83 -419 c-46 -231
-86 -423 -89 -428 -3 -4 -196 14 -430 41 -234 26 -431 48 -438 49 -7 0 -11 4
-8 8 2 4 12 187 21 407 l16 399 344 1344 c189 739 346 1346 348 1349 5 4 1509
139 1585 142 27 1 32 -3 32 -21z m-2633 -172 c2 -2 -50 -1313 -59 -1505 l-3
-55 -173 -47 c-96 -26 -176 -50 -179 -52 -2 -3 20 -16 49 -30 29 -13 118 -55
198 -92 80 -37 148 -70 152 -74 8 -8 -41 -1264 -50 -1272 -7 -7 -2504 -500
-2509 -496 -3 4 385 3278 394 3316 l8 34 545 143 545 144 540 -6 c297 -3 541
-7 542 -8z"/>
<path d="M6836 12448 c3 -90 9 -204 13 -255 l6 -91 99 71 100 72 -3 130 c-1
71 -6 136 -11 145 -7 14 -180 90 -203 90 -4 0 -5 -73 -1 -162z"/>
<path d="M6874 11223 c3 -76 9 -220 13 -321 4 -127 10 -182 17 -179 6 3 83 52
171 110 l161 105 -12 132 c-6 72 -15 135 -20 140 -9 9 -321 150 -331 150 -4 0
-3 -62 1 -137z"/>
<path d="M9560 8807 c0 -2 -50 -248 -110 -547 -61 -299 -109 -550 -108 -556 2
-8 45 1 133 28 72 22 131 41 133 43 3 2 102 995 102 1023 0 8 -22 12 -75 12
-41 0 -75 -1 -75 -3z"/>
<path d="M6690 8737 c0 -41 -3 -156 -7 -256 l-6 -183 104 64 c72 45 105 71
110 89 4 13 7 78 8 145 l1 121 -99 46 c-54 26 -102 47 -105 47 -3 0 -6 -33 -6
-73z"/>
<path d="M6648 7243 c-2 -175 -3 -319 -2 -321 1 -2 80 41 174 95 l172 99 -1
134 c-1 74 -5 138 -9 141 -9 9 -317 169 -324 169 -3 0 -8 -143 -10 -317z"/>
</g>
</svg>
